<svg width="215" height="84" viewBox="0 0 215 84" fill="none" xmlns="http://www.w3.org/2000/svg">
<ellipse cx="11.6751" cy="12.6083" rx="11.6751" ry="12.6083" fill="#9A1E50"/>
<path d="M5.81417 27.3104L1.37436 25.2166L1.33325 53.3463L1.41547 60.5381L1.94989 63.6332C1.94989 63.6332 2.29741 65.7275 2.77208 66.9105C3.40919 68.8033 3.83927 69.7442 4.66311 71.3257C5.74307 73.2453 6.4284 74.1959 7.74631 75.7408C8.84003 76.9321 9.47926 77.5195 10.6651 78.4264C12.249 79.6771 13.1911 80.2859 14.9404 81.2484C16.2337 81.8828 16.9525 82.1433 18.2292 82.5229C19.7843 82.9536 20.6577 83.0671 22.2168 83.1602C23.4761 83.1924 24.1643 83.1156 25.3822 82.9326C26.2357 82.7661 26.7194 82.6472 27.6021 82.2953C28.2297 81.9858 28.5398 81.7626 28.9998 81.2484L27.7666 80.5657C26.7772 79.8862 26.2969 79.4079 25.5466 78.4264C24.9421 77.6478 24.654 77.1352 24.19 76.1505C23.4586 74.6663 23.1491 73.7812 22.7923 72.0995L22.3812 69.2319V58.9905L22.2579 50.7518C22.1594 49.4576 22.0531 48.7304 21.7646 47.4291L20.8191 43.9242C20.1919 42.2599 19.7912 41.3769 19.0103 39.8732L16.4204 35.8222L14.7349 33.9559L11.9395 31.3615L9.18513 29.2677L5.81417 27.3104Z" fill="#9A1E50"/>
<path d="M53.642 54V32.1818H58.7841V54H53.642ZM56.2273 29.0852C55.4129 29.0852 54.7121 28.8153 54.125 28.2756C53.5379 27.7263 53.2443 27.0682 53.2443 26.3011C53.2443 25.5246 53.5379 24.8665 54.125 24.3267C54.7121 23.7775 55.4129 23.5028 56.2273 23.5028C57.0511 23.5028 57.7519 23.7775 58.3295 24.3267C58.9167 24.8665 59.2102 25.5246 59.2102 26.3011C59.2102 27.0682 58.9167 27.7263 58.3295 28.2756C57.7519 28.8153 57.0511 29.0852 56.2273 29.0852ZM69.2138 41.2159V54H64.0717V32.1818H68.9865V35.8892H69.2422C69.7441 34.6676 70.5443 33.697 71.6428 32.9773C72.7507 32.2576 74.1191 31.8977 75.7479 31.8977C77.2536 31.8977 78.5651 32.2197 79.6825 32.8636C80.8094 33.5076 81.6806 34.4403 82.2962 35.6619C82.9212 36.8835 83.2289 38.3655 83.2195 40.108V54H78.0774V40.9034C78.0774 39.4451 77.6986 38.304 76.9411 37.4801C76.1929 36.6562 75.156 36.2443 73.8303 36.2443C72.9306 36.2443 72.1304 36.4432 71.4297 36.8409C70.7384 37.2292 70.1939 37.7926 69.7962 38.5312C69.4079 39.2699 69.2138 40.1648 69.2138 41.2159ZM88.4467 54V32.1818H93.3615V35.8892H93.6172C94.0717 34.6392 94.8246 33.6638 95.8757 32.9631C96.9268 32.2528 98.1816 31.8977 99.6399 31.8977C101.117 31.8977 102.362 32.2576 103.376 32.9773C104.398 33.6875 105.118 34.6581 105.535 35.8892H105.762C106.245 34.6771 107.059 33.7112 108.205 32.9915C109.361 32.2623 110.729 31.8977 112.31 31.8977C114.318 31.8977 115.956 32.5322 117.225 33.8011C118.494 35.0701 119.129 36.9214 119.129 39.3551V54H113.972V40.1506C113.972 38.7964 113.612 37.8068 112.893 37.1818C112.173 36.5473 111.292 36.2301 110.251 36.2301C109.01 36.2301 108.04 36.6184 107.339 37.3949C106.647 38.1619 106.302 39.161 106.302 40.392V54H101.259V39.9375C101.259 38.8106 100.918 37.911 100.237 37.2386C99.5642 36.5663 98.6835 36.2301 97.5945 36.2301C96.8558 36.2301 96.1835 36.4195 95.5774 36.7983C94.9714 37.1676 94.4884 37.6932 94.1286 38.375C93.7687 39.0473 93.5888 39.8333 93.5888 40.733V54H88.4467ZM133.862 54.4261C131.732 54.4261 129.885 53.9574 128.322 53.0199C126.76 52.0824 125.548 50.7708 124.686 49.0852C123.834 47.3996 123.408 45.4299 123.408 43.1761C123.408 40.9223 123.834 38.9479 124.686 37.2528C125.548 35.5578 126.76 34.2415 128.322 33.304C129.885 32.3665 131.732 31.8977 133.862 31.8977C135.993 31.8977 137.839 32.3665 139.402 33.304C140.964 34.2415 142.172 35.5578 143.024 37.2528C143.886 38.9479 144.317 40.9223 144.317 43.1761C144.317 45.4299 143.886 47.3996 143.024 49.0852C142.172 50.7708 140.964 52.0824 139.402 53.0199C137.839 53.9574 135.993 54.4261 133.862 54.4261ZM133.891 50.3068C135.046 50.3068 136.012 49.9896 136.788 49.3551C137.565 48.7112 138.143 47.8494 138.521 46.7699C138.91 45.6903 139.104 44.4877 139.104 43.1619C139.104 41.8267 138.91 40.6193 138.521 39.5398C138.143 38.4508 137.565 37.5843 136.788 36.9403C136.012 36.2964 135.046 35.9744 133.891 35.9744C132.707 35.9744 131.722 36.2964 130.936 36.9403C130.16 37.5843 129.577 38.4508 129.189 39.5398C128.81 40.6193 128.621 41.8267 128.621 43.1619C128.621 44.4877 128.81 45.6903 129.189 46.7699C129.577 47.8494 130.16 48.7112 130.936 49.3551C131.722 49.9896 132.707 50.3068 133.891 50.3068ZM158.198 54.4261C156.067 54.4261 154.221 53.9574 152.658 53.0199C151.096 52.0824 149.884 50.7708 149.022 49.0852C148.17 47.3996 147.744 45.4299 147.744 43.1761C147.744 40.9223 148.17 38.9479 149.022 37.2528C149.884 35.5578 151.096 34.2415 152.658 33.304C154.221 32.3665 156.067 31.8977 158.198 31.8977C160.329 31.8977 162.175 32.3665 163.738 33.304C165.3 34.2415 166.508 35.5578 167.36 37.2528C168.222 38.9479 168.653 40.9223 168.653 43.1761C168.653 45.4299 168.222 47.3996 167.36 49.0852C166.508 50.7708 165.3 52.0824 163.738 53.0199C162.175 53.9574 160.329 54.4261 158.198 54.4261ZM158.227 50.3068C159.382 50.3068 160.348 49.9896 161.124 49.3551C161.901 48.7112 162.478 47.8494 162.857 46.7699C163.246 45.6903 163.44 44.4877 163.44 43.1619C163.44 41.8267 163.246 40.6193 162.857 39.5398C162.478 38.4508 161.901 37.5843 161.124 36.9403C160.348 36.2964 159.382 35.9744 158.227 35.9744C157.043 35.9744 156.058 36.2964 155.272 36.9403C154.496 37.5843 153.913 38.4508 153.525 39.5398C153.146 40.6193 152.957 41.8267 152.957 43.1619C152.957 44.4877 153.146 45.6903 153.525 46.7699C153.913 47.8494 154.496 48.7112 155.272 49.3551C156.058 49.9896 157.043 50.3068 158.227 50.3068ZM181.114 54.3835C179.4 54.3835 177.866 53.9432 176.511 53.0625C175.157 52.1818 174.087 50.9034 173.301 49.2273C172.515 47.5511 172.122 45.5152 172.122 43.1193C172.122 40.6951 172.52 38.6496 173.315 36.983C174.12 35.3068 175.205 34.0426 176.568 33.1903C177.932 32.3286 179.452 31.8977 181.128 31.8977C182.406 31.8977 183.457 32.1155 184.281 32.5511C185.105 32.9773 185.759 33.4934 186.241 34.0994C186.724 34.696 187.098 35.2595 187.364 35.7898H187.577V24.9091H192.733V54H187.676V50.5625H187.364C187.098 51.0928 186.715 51.6562 186.213 52.2528C185.711 52.84 185.048 53.3419 184.224 53.7585C183.401 54.1752 182.364 54.3835 181.114 54.3835ZM182.548 50.1648C183.637 50.1648 184.565 49.8712 185.332 49.2841C186.099 48.6875 186.682 47.8589 187.08 46.7983C187.477 45.7377 187.676 44.5019 187.676 43.0909C187.676 41.6799 187.477 40.4536 187.08 39.4119C186.691 38.3703 186.114 37.5606 185.347 36.983C184.589 36.4053 183.656 36.1165 182.548 36.1165C181.402 36.1165 180.446 36.4148 179.679 37.0114C178.912 37.608 178.334 38.4318 177.946 39.483C177.558 40.5341 177.364 41.7367 177.364 43.0909C177.364 44.4545 177.558 45.6714 177.946 46.7415C178.344 47.8021 178.926 48.6402 179.693 49.2557C180.47 49.8617 181.421 50.1648 182.548 50.1648Z" fill="#9A1E50"/>
</svg>
