<svg width="87" height="87" viewBox="0 0 87 87" fill="none" xmlns="http://www.w3.org/2000/svg">
<g filter="url(#filter0_di_25_126)">
<circle cx="43.5" cy="35.5" r="27.5" fill="url(#paint0_radial_25_126)"/>
<circle cx="43.5" cy="35.5" r="26" stroke="#26D5BF" stroke-width="3"/>
</g>
<path d="M41.2665 25.5897C39.4927 25.8178 37.9717 27.0568 37.4162 28.7187C36.6619 30.9777 37.6566 33.3732 39.7911 34.4217C40.019 34.5336 40.2346 34.6249 40.2594 34.6249C40.3007 34.6249 40.3133 34.7574 40.309 35.172C40.309 35.6156 40.2967 35.6983 40.2634 35.5989C40.0893 35.114 39.4262 34.6208 38.6968 34.4343C38.2243 34.3141 37.8306 34.4219 37.4492 34.7783C36.6702 35.5077 36.8567 36.631 38.104 38.7363C38.4937 39.3994 39.4635 40.8997 39.6747 41.1815C39.9068 41.4799 40.5906 42.574 41.5025 44.095C41.8962 44.7541 42.2568 45.3217 42.3024 45.3509C42.4184 45.4338 44.3124 45.4587 46.277 45.4048L47.914 45.3592L48.1418 45.2059C49.3065 44.4392 49.9779 42.6985 50.0152 40.3858C50.0194 40.0791 50.0069 38.8565 49.9819 37.6712C49.9446 35.6403 49.9363 35.5036 49.8577 35.3005C49.6835 34.8653 49.3354 34.5255 48.9584 34.4179C48.7719 34.3682 48.229 34.3765 48.1005 34.4345C48.0549 34.4552 48.0176 34.4096 47.9472 34.2437C47.8187 33.937 47.541 33.6303 47.2261 33.4604C46.9816 33.3278 46.9403 33.3195 46.5713 33.3195C46.3558 33.3195 46.1278 33.3361 46.0657 33.3568C45.9662 33.3858 45.9455 33.3775 45.9082 33.2822C45.8876 33.22 45.8213 33.104 45.7673 33.0211C45.6637 32.8719 45.6637 32.8679 45.7424 32.7643C45.8876 32.5571 46.19 31.9104 46.2936 31.579C46.4511 31.0817 46.5008 30.6341 46.4761 30.0123C46.3931 27.8448 44.8638 26.0834 42.6756 25.6315C42.3689 25.5691 41.598 25.5443 41.2665 25.5897ZM42.5181 26.684C43.6288 26.8995 44.6027 27.6579 45.1002 28.7023C45.3447 29.2203 45.4235 29.5892 45.4235 30.2317C45.4235 30.7206 45.4112 30.8368 45.3116 31.1642C45.2494 31.3673 45.1085 31.703 45.0008 31.9102C44.8267 32.25 44.7977 32.2832 44.7067 32.2625C44.6487 32.2502 44.3586 32.2419 44.056 32.2459H43.5131L43.509 30.7332C43.509 29.0962 43.505 29.063 43.2769 28.6733C43.1317 28.4246 42.792 28.1388 42.5185 28.0309C42.3403 27.9604 42.1911 27.9356 41.9093 27.9356C41.5777 27.9314 41.5073 27.9439 41.2669 28.0599C40.8525 28.2547 40.5416 28.6028 40.3841 29.0504C40.3551 29.1291 40.3301 29.9539 40.3135 31.3424L40.2928 33.5099L39.9403 33.2903C39.1237 32.7888 38.5229 31.9518 38.2991 30.9943C38.2121 30.613 38.2121 29.8422 38.2991 29.4773C38.6471 27.9979 39.8035 26.8995 41.2665 26.655C41.511 26.6135 42.2363 26.6301 42.5181 26.684Z" fill="#B5F3E1"/>
<defs>
<filter id="filter0_di_25_126" x="0" y="0" width="87" height="87" filterUnits="userSpaceOnUse" color-interpolation-filters="sRGB">
<feFlood flood-opacity="0" result="BackgroundImageFix"/>
<feColorMatrix in="SourceAlpha" type="matrix" values="0 0 0 0 0 0 0 0 0 0 0 0 0 0 0 0 0 0 127 0" result="hardAlpha"/>
<feMorphology radius="8" operator="erode" in="SourceAlpha" result="effect1_dropShadow_25_126"/>
<feOffset dy="8"/>
<feGaussianBlur stdDeviation="12"/>
<feComposite in2="hardAlpha" operator="out"/>
<feColorMatrix type="matrix" values="0 0 0 0 0.14902 0 0 0 0 0.835294 0 0 0 0 0.74902 0 0 0 1 0"/>
<feBlend mode="normal" in2="BackgroundImageFix" result="effect1_dropShadow_25_126"/>
<feBlend mode="normal" in="SourceGraphic" in2="effect1_dropShadow_25_126" result="shape"/>
<feColorMatrix in="SourceAlpha" type="matrix" values="0 0 0 0 0 0 0 0 0 0 0 0 0 0 0 0 0 0 127 0" result="hardAlpha"/>
<feOffset/>
<feGaussianBlur stdDeviation="2.5"/>
<feComposite in2="hardAlpha" operator="arithmetic" k2="-1" k3="1"/>
<feColorMatrix type="matrix" values="0 0 0 0 0.0392157 0 0 0 0 0.360784 0 0 0 0 0.341176 0 0 0 0.25 0"/>
<feBlend mode="normal" in2="shape" result="effect2_innerShadow_25_126"/>
</filter>
<radialGradient id="paint0_radial_25_126" cx="0" cy="0" r="1" gradientUnits="userSpaceOnUse" gradientTransform="translate(43.5 35.5) rotate(34.9493) scale(43.1087)">
<stop stop-color="#089084"/>
<stop offset="1" stop-color="#097068"/>
</radialGradient>
</defs>
</svg>
